<svg width="835" height="207" viewBox="0 0 835 207" fill="none" xmlns="http://www.w3.org/2000/svg">
<g clip-path="url(#clip0_2_6537)">
<path fill-rule="evenodd" clip-rule="evenodd" d="M458.83 75.0756C465.166 81.4942 465.166 91.882 458.83 98.2859C452.508 104.704 442.231 104.704 435.909 98.2859C429.572 91.882 429.572 81.4942 435.909 75.0756C442.231 68.6717 452.508 68.6717 458.83 75.0756Z" fill="white"/>
<path fill-rule="evenodd" clip-rule="evenodd" d="M480.045 52.8392C462.005 34.1441 432.748 34.1441 414.693 52.8392C396.639 71.5343 396.639 101.842 414.693 120.537C432.748 139.232 462.005 139.232 480.045 120.537C498.1 101.842 498.1 71.5343 480.045 52.8392ZM474.4 113.632C463.917 124.211 443.334 120.729 428.411 105.855C413.488 90.982 409.886 70.3391 420.354 59.7447C430.837 49.1651 451.42 52.6474 466.343 67.5208C481.265 82.3943 484.882 103.037 474.4 113.632Z" fill="white"/>
<path fill-rule="evenodd" clip-rule="evenodd" d="M505.818 26.1466C474.811 -5.99071 425.308 -7.24492 392.831 22.3545V4.60369H351.547V206.65H392.831V151.022C425.308 180.621 474.811 179.367 505.818 147.23C538.104 113.794 538.104 59.5824 505.818 26.1466ZM490.351 125.687C464.696 154.15 424.676 159.757 400.932 138.229C397.786 135.381 395.095 132.194 392.831 128.741C381.128 110.872 381.246 86.0094 392.831 64.1714C395.889 58.402 399.756 52.8392 404.402 47.6895C430.043 19.2263 470.062 13.6045 493.806 35.1474C517.536 56.6904 515.992 97.2235 490.351 125.687Z" fill="white"/>
<path d="M458.83 75.0756C465.166 81.4942 465.166 91.882 458.83 98.2859C452.508 104.704 442.231 104.704 435.909 98.2859C429.572 91.882 429.572 81.4942 435.909 75.0756C442.231 68.6717 452.508 68.6717 458.83 75.0756Z" fill="black"/>
<path d="M480.045 52.8392C462.005 34.1441 432.748 34.1441 414.693 52.8392C396.639 71.5343 396.639 101.842 414.693 120.537C432.748 139.232 462.005 139.232 480.045 120.537C498.1 101.842 498.1 71.5343 480.045 52.8392ZM474.4 113.632C463.917 124.211 443.334 120.729 428.411 105.855C413.488 90.982 409.886 70.3391 420.354 59.7447C430.837 49.1651 451.42 52.6474 466.343 67.5208C481.265 82.3943 484.882 103.037 474.4 113.632Z" fill="black"/>
<path fill-rule="evenodd" clip-rule="evenodd" d="M458.83 75.0756C465.166 81.4942 465.166 91.882 458.83 98.2859C452.508 104.704 442.231 104.704 435.909 98.2859C429.572 91.882 429.572 81.4942 435.909 75.0756C442.231 68.6717 452.508 68.6717 458.83 75.0756Z" fill="white"/>
<path fill-rule="evenodd" clip-rule="evenodd" d="M480.045 52.8392C462.005 34.1441 432.748 34.1441 414.693 52.8392C396.639 71.5343 396.639 101.842 414.693 120.537C432.748 139.232 462.005 139.232 480.045 120.537C498.1 101.842 498.1 71.5343 480.045 52.8392ZM474.4 113.632C463.917 124.211 443.334 120.729 428.411 105.855C413.488 90.982 409.886 70.3391 420.354 59.7447C430.837 49.1651 451.42 52.6474 466.343 67.5208C481.265 82.3943 484.882 103.037 474.4 113.632Z" fill="white"/>
<path d="M121.191 82.9403C112.826 78.1447 102.49 74.2788 90.2134 71.3277C81.3185 68.8783 74.2614 66.606 69.0274 64.5107C63.7933 62.4155 60.0589 60.2021 57.8536 57.8708C55.6188 55.5394 54.5162 52.8982 54.5162 49.9471C54.5162 45.5205 56.4128 42.0235 60.206 39.4413C63.9992 36.8591 69.4243 35.5753 76.4961 35.5753C82.774 35.5753 89.9634 36.9181 98.0791 39.6331C106.18 42.3481 113.502 46.155 120.044 51.0685L142.01 20.8494C133.379 14.4603 123.367 9.54675 112.002 6.10874C100.623 2.67072 89.0519 0.944336 77.29 0.944336C63.9551 0.944336 52.252 3.09863 42.1809 7.39246C32.1098 11.701 24.1412 17.5885 18.2456 25.0842C12.3646 32.58 9.42418 41.2414 9.42418 51.0685C9.42418 60.8956 11.7766 69.6309 16.496 76.5069C21.2007 83.3829 27.9932 89.0343 36.8881 93.4609C45.7683 97.8875 56.501 101.709 69.0568 104.882C77.4224 107.331 84.0237 109.5 88.8608 111.33C93.6978 113.174 97.0941 115.151 99.0642 117.232C101.02 119.327 102.005 121.968 102.005 125.156C102.005 130.32 99.6523 134.437 94.9475 137.506C90.2428 140.575 83.9649 142.124 76.1286 142.124C67.2337 142.124 58.1476 140.28 48.8705 136.591C39.5933 132.902 30.7572 127.738 22.3916 121.098L0 152.04C11.7766 160.392 23.9354 166.604 36.4764 170.661C49.0322 174.719 62.2349 176.741 76.0992 176.741C98.5937 176.741 116.045 171.901 128.469 162.177C140.878 152.483 147.111 139.749 147.111 124.019C147.111 114.93 144.877 107.006 140.451 100.248C136.011 93.4904 129.601 87.721 121.221 82.9255H121.191V82.9403Z" fill="white"/>
<path d="M703.844 44.0597C696.375 30.7798 686.289 20.2887 673.557 12.5421C660.84 4.79552 646.387 0.929596 630.244 0.929596C614.101 0.929596 599.898 4.79552 586.931 12.5421C573.949 20.2887 563.672 30.8536 556.1 44.2515C548.514 57.6495 544.721 72.582 544.721 89.049C544.721 105.516 548.632 120.375 556.468 133.655C564.304 146.935 575.066 157.426 588.769 165.172C602.471 172.919 617.879 176.785 635.022 176.785C648.24 176.785 660.59 174.498 672.102 169.968C683.599 165.423 693.876 158.724 702.932 149.886L677.968 122.603C671.602 128.756 664.809 133.242 657.605 136.06C650.372 138.893 642.491 140.295 633.934 140.295C624.642 140.295 616.38 138.081 609.161 133.655C601.927 129.228 596.179 123.208 591.915 115.594C589.974 112.171 588.519 108.467 587.46 104.527H713.621C714.106 102.314 714.474 99.8057 714.724 96.9727C714.959 94.1544 715.091 91.3804 715.091 88.6801C715.091 72.2131 711.357 57.3544 703.903 44.0745H703.873L703.844 44.0597ZM587.431 72.4492C588.342 68.8783 589.563 65.4846 591.121 62.3122C594.914 54.5656 600.222 48.4273 607.088 43.8827C613.939 39.338 621.526 37.0656 629.847 37.0656C638.668 37.0656 646.431 39.3527 653.165 43.8827C659.899 48.4273 665.221 54.4475 669.146 61.9433C670.867 65.2338 672.19 68.7603 673.145 72.4492H587.431Z" fill="white"/>
<path d="M739.85 4.58894H781.001V26.8844C794.395 8.8385 814.64 0 834.562 0V42.6284C799.938 36.077 781.001 51.1571 781.001 79.0301V172.166H739.85V4.58894Z" fill="white"/>
<path d="M458.83 98.2859C452.508 104.704 442.231 104.704 435.909 98.2859C429.572 91.882 429.572 81.4942 435.909 75.0756C442.231 68.6717 452.508 68.6717 458.83 75.0756C465.166 81.4942 465.166 91.882 458.83 98.2859Z" fill="black"/>
<path fill-rule="evenodd" clip-rule="evenodd" d="M458.83 98.2859C452.508 104.704 442.231 104.704 435.909 98.2859C429.572 91.882 429.572 81.4942 435.909 75.0756C442.231 68.6717 452.508 68.6717 458.83 75.0756C465.166 81.4942 465.166 91.882 458.83 98.2859Z" fill="white"/>
<path d="M168.753 106.918V4.6037H209.89V98.0646C209.89 125.613 223.931 138.067 243.853 138.067C263.774 138.067 283.696 125.598 283.696 98.0646V4.6037H324.833V172.181H283.696V149.886C270.317 167.932 250.072 176.77 230.135 176.77C193.556 176.77 168.753 152.173 168.753 106.918Z" fill="white"/>
</g>
<defs>
<clipPath id="clip0_2_6537">
<rect width="834.547" height="206.65" fill="white"/>
</clipPath>
</defs>
</svg>
